<svg xmlns="http://www.w3.org/2000/svg" viewBox="0 0 64 64" width="64" height="64">
  <defs>
    <linearGradient id="bg" x1="0%" y1="0%" x2="100%" y2="100%">
      <stop offset="0%" stop-color="#2b1a35"/>
      <stop offset="100%" stop-color="#1a1025"/>
    </linearGradient>
    <linearGradient id="heart" x1="0%" y1="0%" x2="100%" y2="100%">
      <stop offset="0%" stop-color="#d4728c"/>
      <stop offset="100%" stop-color="#b8456a"/>
    </linearGradient>
    <linearGradient id="gold" x1="0%" y1="0%" x2="100%" y2="100%">
      <stop offset="0%" stop-color="#c4a265"/>
      <stop offset="100%" stop-color="#d4b87a"/>
    </linearGradient>
  </defs>
  <rect width="64" height="64" rx="14" fill="url(#bg)"/>
  <path d="M32 52 C32 52 12 38 12 26 C12 20 17 15 23 15 C27 15 30 17.5 32 20.5 C34 17.5 37 15 41 15 C47 15 52 20 52 26 C52 38 32 52 32 52Z" fill="url(#heart)" opacity="0.9"/>
  <circle cx="28" cy="28" r="1.5" fill="url(#gold)" opacity="0.8"/>
  <circle cx="36" cy="25" r="1" fill="url(#gold)" opacity="0.6"/>
  <circle cx="32" cy="33" r="1.2" fill="url(#gold)" opacity="0.7"/>
</svg>
